<?xml version="1.0" standalone="no"?>
<!DOCTYPE svg PUBLIC "-//W3C//DTD SVG 20010904//EN"
 "http://www.w3.org/TR/2001/REC-SVG-20010904/DTD/svg10.dtd">
<svg version="1.0" xmlns="http://www.w3.org/2000/svg"
 width="576.000000pt" height="576.000000pt" viewBox="0 0 576.000000 576.000000"
 preserveAspectRatio="xMidYMid meet">
<metadata>
Created by potrace 1.14, written by Peter Selinger 2001-2017
</metadata>
<g transform="translate(0.000000,576.000000) scale(0.100000,-0.100000)"
fill="#000000" stroke="none">
<path d="M2 4800 l-1 -957 37 0 c20 0 100 -1 177 -1 460 -3 468 -3 495 -17 15
-8 30 -12 32 -9 8 7 243 54 293 58 25 2 48 -1 51 -5 3 -5 -4 -10 -15 -10 -76
-5 -114 -11 -241 -42 -83 -20 -100 -21 -128 -10 -22 9 -88 13 -224 12 -307 0
-402 2 -408 9 -5 6 -11 7 -46 3 -7 -1 -11 -38 -11 -105 -1 -57 -4 -113 -8
-125 -5 -17 -2 -21 17 -21 20 -1 21 -2 6 -10 -22 -13 -22 28 -22 -1918 l-1
-1652 907 0 c498 1 909 4 912 7 9 9 100 11 124 2 12 -5 22 -5 22 -1 0 5 37 7
81 7 l82 -2 106 71 c133 89 236 155 281 179 19 11 42 25 50 32 25 20 134 79
153 82 30 5 19 -6 -23 -23 -22 -9 -40 -20 -40 -24 0 -9 -31 -22 -40 -17 -3 1
-16 -7 -28 -19 -12 -11 -35 -27 -50 -35 -15 -8 -29 -16 -32 -19 -3 -3 -27 -19
-54 -34 -49 -29 -202 -128 -221 -143 -5 -5 -27 -19 -47 -32 -21 -12 -38 -24
-38 -26 0 -3 192 2 245 7 17 2 35 7 40 11 33 27 209 147 216 147 17 0 8 -9
-49 -46 -87 -58 -163 -116 -158 -122 3 -3 11 -1 18 5 7 5 29 8 48 7 35 -1 98
28 113 53 4 7 18 13 30 13 20 -1 20 -2 -5 -16 -16 -8 -28 -19 -28 -24 0 -6 -6
-10 -12 -10 -7 0 -21 -6 -30 -14 -26 -19 1989 -20 2016 -1 10 8 15 18 12 24
-4 5 2 15 13 21 14 7 22 7 26 0 4 -6 3 -10 -2 -9 -21 4 -34 -2 -27 -13 4 -6
-1 -17 -10 -23 -13 -10 103 -12 566 -11 l583 1 0 447 c0 247 -3 448 -7 448 -5
0 -8 5 -8 11 0 5 4 8 9 5 6 -4 9 75 9 194 0 119 -4 200 -10 200 -5 0 -6 4 -3
10 3 5 8 388 10 850 2 630 0 840 -8 840 -9 0 -9 2 -1 8 8 5 11 374 10 1372
l-1 1365 -2876 1 -2877 1 0 -957z m4162 452 c3 -5 -1 -9 -9 -9 -8 0 -12 4 -9
9 3 4 7 8 9 8 2 0 6 -4 9 -8z m-307 -28 c-3 -3 -12 -4 -19 -1 -8 3 -5 6 6 6
11 1 17 -2 13 -5z m-1683 -22 c3 -5 -1 -9 -9 -9 -8 0 -12 4 -9 9 3 4 7 8 9 8
2 0 6 -4 9 -8z m2446 -6 c0 -2 -7 -7 -16 -10 -8 -3 -12 -2 -9 4 6 10 25 14 25
6z m835 -6 c3 -6 -1 -7 -9 -4 -18 7 -21 14 -7 14 6 0 13 -4 16 -10z m-3895 -6
c0 -8 -19 -13 -24 -6 -3 5 1 9 9 9 8 0 15 -2 15 -3z m2910 -4 c0 -5 -5 -10
-11 -10 -5 0 -7 5 -4 10 3 6 8 10 11 10 2 0 4 -4 4 -10z m-3613 -6 c-3 -3 -12
-4 -19 -1 -8 3 -5 6 6 6 11 1 17 -2 13 -5z m-713 -22 c3 -5 -1 -9 -9 -9 -8 0
-12 4 -9 9 3 4 7 8 9 8 2 0 6 -4 9 -8z m4782 -481 c-14 -14 -26 -20 -26 -13 0
6 9 17 20 24 11 7 21 22 21 33 1 18 2 19 6 1 3 -11 -5 -29 -21 -45z m347 -88
c-7 -2 -19 -2 -25 0 -7 3 -2 5 12 5 14 0 19 -2 13 -5z m7 -559 c0 -8 -19 -13
-24 -6 -3 5 1 9 9 9 8 0 15 -2 15 -3z m-180 -40 c0 -2 -11 -4 -25 -4 -14 0
-25 4 -25 9 0 4 11 6 25 3 14 -2 25 -6 25 -8z m-110 -4 c0 -5 -5 -10 -11 -10
-5 0 -7 5 -4 10 3 6 8 10 11 10 2 0 4 -4 4 -10z m50 0 c0 -5 -5 -10 -11 -10
-5 0 -7 5 -4 10 3 6 8 10 11 10 2 0 4 -4 4 -10z m-95 -10 c-11 -5 -36 -8 -55
-8 l-35 1 40 7 c57 10 74 10 50 0z m585 0 c-8 -5 -19 -10 -25 -10 -5 0 -3 5 5
10 8 5 20 10 25 10 6 0 3 -5 -5 -10z m-1120 -22 c-19 -5 -69 -10 -110 -12 -87
-4 -100 -7 -118 -23 -16 -15 -66 -18 -57 -3 3 6 16 10 29 10 12 0 27 5 33 11
6 6 54 13 107 16 53 3 99 9 101 14 3 4 15 4 28 1 19 -5 18 -7 -13 -14z m440 2
c0 -5 -6 -7 -13 -4 -8 3 -39 1 -71 -4 -31 -5 -54 -6 -49 -1 15 15 133 23 133
9z m-324 -17 c-4 -4 -26 -8 -49 -8 -24 -1 -49 -5 -57 -10 -13 -8 -13 -6 -1 8
9 12 29 17 64 17 28 0 47 -3 43 -7z m69 -3 c3 -6 -1 -7 -9 -4 -18 7 -21 14 -7
14 6 0 13 -4 16 -10z m35 0 c0 -5 -2 -10 -4 -10 -3 0 -8 5 -11 10 -3 6 -1 10
4 10 6 0 11 -4 11 -10z m58 3 c-10 -2 -26 -2 -35 0 -10 3 -2 5 17 5 19 0 27
-2 18 -5z m1017 -33 c3 -5 1 -10 -4 -10 -6 0 -11 5 -11 10 0 6 2 10 4 10 3 0
8 -4 11 -10z m-4599 -70 c0 -12 -4 -16 -9 -11 -5 5 -6 14 -3 20 10 15 12 14
12 -9z m1264 1 c0 -6 -12 -11 -27 -11 -16 -1 -92 -1 -170 -1 -95 0 -143 -4
-143 -11 0 -6 -9 -8 -22 -5 -12 4 -40 2 -63 -3 -22 -5 -123 -11 -225 -14 -176
-5 -247 -9 -385 -21 -129 -12 -193 -9 -217 9 -19 14 -20 16 -4 11 24 -7 223
-8 235 -1 12 8 190 17 393 21 91 1 182 8 202 15 20 6 45 9 56 5 11 -3 20 -2
20 3 0 5 75 10 175 11 117 1 175 -1 175 -8z m560 3 c0 0 -18 -19 -40 -42 -25
-25 -40 -35 -38 -24 2 9 13 25 26 35 12 10 20 22 18 26 -3 4 4 7 15 7 10 0 19
-1 19 -2z m70 -8 c0 -2 -16 -20 -35 -39 -41 -41 -47 -33 -9 12 22 27 44 40 44
27z m268 -46 c-18 -16 -36 -30 -40 -30 -11 0 54 59 65 60 5 0 -7 -13 -25 -30z
m559 15 c0 -8 -4 -12 -9 -9 -5 3 -6 10 -3 15 9 13 12 11 12 -6z m238 -16 c11
-17 -1 -21 -15 -4 -8 9 -8 15 -2 15 6 0 14 -5 17 -11z m-1052 -44 c-5 -14 -59
-44 -91 -51 -8 -1 -21 -6 -30 -10 -19 -8 -40 -14 -62 -17 -8 -1 -25 -8 -37
-15 -19 -11 -22 -10 -17 3 4 8 18 18 33 21 59 13 148 45 176 64 36 24 36 24
28 5z m682 -5 c-3 -5 -12 -10 -18 -10 -7 0 -6 4 3 10 19 12 23 12 15 0z m294
-118 c24 -24 41 -45 39 -48 -7 -7 -158 154 -158 168 0 6 17 -8 38 -32 20 -25
57 -64 81 -88z m-783 103 c-11 -8 -22 -12 -25 -9 -6 6 19 24 34 24 6 -1 1 -7
-9 -15z m-968 -21 c-14 -14 -43 -16 -199 -15 -101 0 -206 4 -234 8 -29 5 48 7
186 5 161 -2 239 0 244 7 3 6 9 11 13 11 3 0 -1 -7 -10 -16z m942 -34 c0 -5
-5 -10 -11 -10 -6 0 -17 -7 -25 -15 -18 -18 -34 -19 -34 -3 0 6 3 8 6 5 4 -3
18 3 32 13 28 23 32 24 32 10z m681 -47 l34 -38 -40 35 c-22 19 -42 36 -44 38
-2 1 0 2 5 2 6 0 26 -17 45 -37z m-762 3 c-10 -10 -109 -45 -109 -38 0 4 21
14 48 23 48 17 68 22 61 15z m1624 -3 c-7 -2 -19 -2 -25 0 -7 3 -2 5 12 5 14
0 19 -2 13 -5z m-3110 -10 c-7 -2 -21 -2 -30 0 -10 3 -4 5 12 5 17 0 24 -2 18
-5z m3204 1 c-3 -3 -12 -4 -19 -1 -8 3 -5 6 6 6 11 1 17 -2 13 -5z m-4711 -22
c-8 -13 -56 -22 -56 -11 0 5 9 9 19 9 11 0 23 5 26 11 4 6 9 8 12 5 3 -2 2 -9
-1 -14z m4851 12 c-3 -3 -12 -4 -19 -1 -8 3 -5 6 6 6 11 1 17 -2 13 -5z m60 0
c-3 -3 -12 -4 -19 -1 -8 3 -5 6 6 6 11 1 17 -2 13 -5z m318 -14 c3 -6 -1 -7
-9 -4 -18 7 -21 14 -7 14 6 0 13 -4 16 -10z m40 0 c3 -6 -1 -7 -9 -4 -18 7
-21 14 -7 14 6 0 13 -4 16 -10z m-3526 -27 c2 -2 -3 -3 -11 -3 -9 0 -19 7 -22
16 -6 15 -4 15 11 3 10 -7 20 -15 22 -16z m1131 15 c0 -6 -3 -8 -7 -5 -3 4
-12 2 -20 -4 -8 -8 -13 -8 -13 -1 0 10 15 19 33 21 4 1 7 -4 7 -11z m945 -16
c-3 -3 -11 0 -18 7 -9 10 -8 11 6 5 10 -3 15 -9 12 -12z m-2432 -32 c3 -11 1
-20 -4 -20 -5 0 -9 6 -9 14 0 8 -6 17 -12 19 -8 4 -7 6 3 6 9 1 19 -8 22 -19z
m1568 -3 c-10 -9 -11 -8 -5 6 3 10 9 15 12 12 3 -3 0 -11 -7 -18z m509 3 c0
-5 -5 -10 -11 -10 -5 0 -7 5 -4 10 3 6 8 10 11 10 2 0 4 -4 4 -10z m431 -37
c13 -16 12 -17 -3 -4 -10 7 -18 15 -18 17 0 8 8 3 21 -13z m119 -6 c49 -42 55
-61 8 -23 -27 21 -48 40 -48 42 0 10 17 1 40 -19z m-3126 -30 c21 -3 41 -9 45
-13 3 -4 -14 -4 -39 0 -25 4 -120 7 -212 6 -91 0 -169 3 -171 7 -6 9 316 9
377 0z m1590 -22 c3 -8 1 -15 -4 -15 -6 0 -10 7 -10 15 0 8 2 15 4 15 2 0 6
-7 10 -15z m2663 -1 c-3 -3 -12 -4 -19 -1 -8 3 -5 6 6 6 11 1 17 -2 13 -5z
m40 0 c-3 -3 -12 -4 -19 -1 -8 3 -5 6 6 6 11 1 17 -2 13 -5z m70 0 c-3 -3 -12
-4 -19 -1 -8 3 -5 6 6 6 11 1 17 -2 13 -5z m40 0 c-3 -3 -12 -4 -19 -1 -8 3
-5 6 6 6 11 1 17 -2 13 -5z m40 0 c-3 -3 -12 -4 -19 -1 -8 3 -5 6 6 6 11 1 17
-2 13 -5z m-3642 -22 c-3 -3 -11 0 -18 7 -9 10 -8 11 6 5 10 -3 15 -9 12 -12z
m3232 12 c-3 -3 -12 -4 -19 -1 -8 3 -5 6 6 6 11 1 17 -2 13 -5z m76 -1 c-7 -2
-21 -2 -30 0 -10 3 -4 5 12 5 17 0 24 -2 18 -5z m-3053 -7 c0 -3 -4 -8 -10
-11 -5 -3 -10 -1 -10 4 0 6 5 11 10 11 6 0 10 -2 10 -4z m2829 -6 c-10 -7 -49
-2 -49 5 0 2 14 3 31 3 17 -1 25 -4 18 -8z m71 6 c0 -3 -4 -8 -10 -11 -5 -3
-10 -1 -10 4 0 6 5 11 10 11 6 0 10 -2 10 -4z m-220 -13 c0 -5 -13 -8 -30 -8
-16 0 -30 3 -30 8 0 4 14 7 30 7 17 0 30 -3 30 -7z m43 0 c-7 -2 -19 -2 -25 0
-7 3 -2 5 12 5 14 0 19 -2 13 -5z m-3713 -37 c-7 -7 -13 -7 -20 0 -6 6 -3 10
10 10 13 0 16 -4 10 -10z m64 6 c3 -5 -1 -9 -9 -9 -8 0 -12 4 -9 9 3 4 7 8 9
8 2 0 6 -4 9 -8z m40 0 c3 -5 -1 -9 -9 -9 -8 0 -12 4 -9 9 3 4 7 8 9 8 2 0 6
-4 9 -8z m-458 -29 c-6 -6 -36 9 -36 18 0 5 9 4 20 -3 10 -7 18 -14 16 -15z
m148 19 c3 -5 -1 -9 -9 -9 -8 0 -12 4 -9 9 3 4 7 8 9 8 2 0 6 -4 9 -8z m3349
-52 c-5 -5 -42 41 -43 53 0 4 11 -5 24 -20 13 -15 22 -30 19 -33z m-3713 34
c0 -2 -9 -4 -20 -4 -11 0 -20 4 -20 9 0 5 9 7 20 4 11 -3 20 -7 20 -9z m413 9
c-7 -2 -19 -2 -25 0 -7 3 -2 5 12 5 14 0 19 -2 13 -5z m-698 -12 c3 -5 2 -12
-3 -15 -5 -3 -9 1 -9 9 0 17 3 19 12 6z m329 3 c9 -3 16 -13 16 -22 0 -14 -1
-14 -12 0 -7 9 -20 18 -28 21 -8 3 -10 6 -3 6 6 1 18 -2 27 -5z m79 -1 c-7 -2
-19 -2 -25 0 -7 3 -2 5 12 5 14 0 19 -2 13 -5z m-335 -10 c-10 -2 -18 -9 -18
-15 0 -6 -3 -9 -6 -5 -10 10 6 27 24 26 15 -1 15 -2 0 -6z m3702 -48 c0 -5 -5
-3 -10 5 -5 8 -10 20 -10 25 0 6 5 3 10 -5 5 -8 10 -19 10 -25z m110 -6 c0 -6
-4 -7 -10 -4 -5 3 -10 11 -10 16 0 6 5 7 10 4 6 -3 10 -11 10 -16z m155 -52
c20 -38 35 -71 32 -73 -4 -4 -77 132 -77 144 0 10 7 -2 45 -71z m-3075 38 c0
-2 -9 -3 -19 -2 -11 0 -18 5 -15 9 4 6 34 0 34 -7z m73 -2 c-7 -2 -19 -2 -25
0 -7 3 -2 5 12 5 14 0 19 -2 13 -5z m67 -3 c0 -5 -2 -10 -4 -10 -3 0 -8 5 -11
10 -3 6 -1 10 4 10 6 0 11 -4 11 -10z m97 -10 c4 -12 3 -13 -5 -1 -6 8 -17 11
-26 8 -9 -4 -26 -2 -38 2 -18 7 -13 9 21 7 30 -1 46 -6 48 -16z m2586 -10 c12
-22 12 -32 4 -37 -7 -3 -9 -3 -5 2 4 4 4 13 -1 19 -10 14 -22 46 -16 46 2 0
10 -13 18 -30z m601 -11 c12 -20 15 -34 8 -41 -6 -6 -17 3 -31 27 -11 20 -21
40 -21 45 0 18 26 -1 44 -31z m-3030 23 c3 -5 -1 -9 -9 -9 -8 0 -12 4 -9 9 3
4 7 8 9 8 2 0 6 -4 9 -8z m41 -10 c-3 -3 -11 0 -18 7 -9 10 -8 11 6 5 10 -3
15 -9 12 -12z m925 -10 c0 -8 -1 -13 -3 -11 -1 2 -9 12 -16 22 -12 15 -12 17
3 11 9 -3 16 -13 16 -22z m1586 -19 c-7 -7 -26 7 -26 19 0 6 6 6 15 -2 9 -7
13 -15 11 -17z m1139 -3 c-3 -5 -12 -10 -18 -10 -7 0 -24 -7 -40 -15 -24 -12
-118 -35 -154 -38 -7 0 -13 -5 -13 -10 0 -5 -7 -4 -15 3 -11 9 -15 9 -15 1 0
-7 -5 -9 -11 -6 -16 10 -5 16 42 21 24 3 48 8 54 12 5 4 18 5 28 4 10 -2 25 2
33 8 8 7 14 9 14 6 0 -4 10 -1 23 6 12 7 25 12 29 13 3 0 10 3 14 8 11 11 36
9 29 -3z m76 -16 c36 -18 33 -30 -3 -13 -18 8 -36 8 -64 0 -35 -9 -37 -9 -20
4 10 8 23 12 27 9 5 -3 9 0 9 5 0 15 16 14 51 -5z m-1302 -49 c0 -5 -4 -3 -9
5 -5 8 -9 22 -9 30 0 16 17 -16 18 -35z m-2480 -4 c36 -2 59 -6 53 -10 -6 -4
-38 -5 -69 -3 -32 2 -227 5 -435 6 -207 0 -374 4 -372 8 4 6 623 5 823 -1z
m-969 -22 c0 -6 -4 -7 -10 -4 -5 3 -10 11 -10 16 0 6 5 7 10 4 6 -3 10 -11 10
-16z m30 11 c0 -5 -2 -10 -4 -10 -3 0 -8 5 -11 10 -3 6 -1 10 4 10 6 0 11 -4
11 -10z m40 6 c0 -11 -19 -15 -25 -6 -3 5 1 10 9 10 9 0 16 -2 16 -4z m30 0
c0 -3 -4 -8 -10 -11 -5 -3 -10 -1 -10 4 0 6 5 11 10 11 6 0 10 -2 10 -4z m30
-6 c0 -5 -2 -10 -4 -10 -3 0 -8 5 -11 10 -3 6 -1 10 4 10 6 0 11 -4 11 -10z
m1006 -2 c2 -3 -19 -4 -46 -4 -28 1 -50 4 -50 9 0 8 87 3 96 -5z m84 -5 c0 -3
-7 -3 -15 1 -8 3 -15 0 -15 -6 0 -6 -3 -9 -6 -5 -11 10 6 26 21 20 8 -3 15 -7
15 -10z m-50 -3 c0 -5 -2 -10 -4 -10 -3 0 -8 5 -11 10 -3 6 -1 10 4 10 6 0 11
-4 11 -10z m3224 -17 c-14 -15 -33 -18 -98 -16 -101 3 -144 7 -152 15 -5 6 37
4 171 -5 22 -2 49 3 60 10 28 19 39 16 19 -4z m-4594 -4 c3 -1 -13 -5 -35 -8
-47 -8 -74 1 -30 9 27 6 51 5 65 -1z m198 -3 c3 -3 -34 -6 -81 -6 -48 0 -87 4
-87 8 0 9 159 7 168 -2z m4856 -21 c-10 -8 -23 -15 -28 -15 -6 0 -1 7 10 15
10 8 23 15 28 15 6 0 1 -7 -10 -15z m-117 -37 c18 -13 33 -27 33 -32 0 -8 -29
10 -40 26 -3 4 -16 9 -28 11 -28 4 -41 17 -17 17 10 0 34 -10 52 -22z m-646
-45 c13 -32 26 -62 28 -67 9 -22 -21 8 -48 50 -33 48 -39 74 -18 74 7 0 24
-26 38 -57z m712 42 c-3 -9 -8 -14 -10 -11 -3 3 -2 9 2 15 9 16 15 13 8 -4z
m-879 -21 c4 -9 2 -12 -5 -8 -6 3 -29 -11 -50 -32 -24 -24 -37 -31 -33 -20 8
20 62 76 74 76 5 0 11 -7 14 -16z m-694 -31 c0 -10 -4 -14 -8 -8 -4 6 -11 13
-16 18 -5 4 -2 7 7 7 10 0 17 -8 17 -17z m824 -27 c-3 -8 -13 -17 -22 -21 -13
-5 -13 -2 3 15 21 24 26 25 19 6z m1065 -7 c4 -12 2 -12 -12 0 -10 7 -17 9
-17 4 0 -5 -31 -31 -70 -57 -38 -26 -86 -64 -108 -84 -64 -62 -81 -70 -22 -11
62 63 200 169 214 165 6 -1 12 -9 15 -17z m-1112 -21 c-3 -8 -6 -5 -6 6 -1 11
2 17 5 13 3 -3 4 -12 1 -19z m-222 -11 c-16 -12 -38 -30 -47 -39 -10 -10 -18
-13 -18 -7 0 15 62 69 80 69 9 -1 4 -9 -15 -23z m605 19 c0 -3 -4 -8 -10 -11
-5 -3 -10 -1 -10 4 0 6 5 11 10 11 6 0 10 -2 10 -4z m740 -21 c-7 -8 -20 -15
-29 -15 -11 0 -8 5 9 14 33 19 35 19 20 1z m-1287 -8 c4 3 7 1 7 -5 0 -21 -16
-21 -30 1 -12 19 -11 21 2 10 8 -7 18 -10 21 -6z m287 -27 c6 -11 8 -20 6 -20
-3 0 -10 9 -16 20 -6 11 -8 20 -6 20 3 0 10 -9 16 -20z m-860 -10 c0 -5 -2
-10 -4 -10 -3 0 -8 5 -11 10 -3 6 -1 10 4 10 6 0 11 -4 11 -10z m-1760 -24 c0
-3 -15 -14 -32 -26 l-33 -22 30 26 c31 27 35 29 35 22z m-110 -86 c-25 -21
-51 -39 -57 -40 -7 0 -13 -4 -13 -9 0 -5 -8 -12 -17 -15 -19 -6 0 11 77 70 60
46 65 43 10 -6z m1147 5 c0 -8 -4 -12 -9 -9 -5 3 -6 10 -3 15 9 13 12 11 12
-6z m1483 -5 c0 -5 -2 -10 -4 -10 -3 0 -8 5 -11 10 -3 6 -1 10 4 10 6 0 11 -4
11 -10z m-285 -10 c-3 -5 -13 -10 -21 -10 -8 0 -14 5 -14 10 0 6 9 10 21 10
11 0 17 -4 14 -10z m-118 -22 c-3 -8 -6 -5 -6 6 -1 11 2 17 5 13 3 -3 4 -12 1
-19z m463 -3 c-7 -8 -20 -15 -29 -14 -11 0 -9 3 7 9 12 5 22 15 22 21 0 7 3 9
6 6 4 -4 1 -13 -6 -22z m-2865 -5 c-3 -5 -12 -10 -18 -10 -7 0 -6 4 3 10 19
12 23 12 15 0z m-55 -30 c-14 -11 -29 -20 -35 -20 -5 0 4 9 20 20 38 25 48 25
15 0z m3520 0 c0 -5 -5 -10 -11 -10 -5 0 -7 5 -4 10 3 6 8 10 11 10 2 0 4 -4
4 -10z m-3407 -15 c-3 -9 -8 -14 -10 -11 -3 3 -2 9 2 15 9 16 15 13 8 -4z
m2024 -7 c-3 -8 -6 -5 -6 6 -1 11 2 17 5 13 3 -3 4 -12 1 -19z m407 16 c23 -9
20 -23 -4 -17 -11 3 -20 9 -20 14 0 11 3 11 24 3z m-2620 -50 c-21 -15 -51
-35 -66 -46 -16 -11 -28 -17 -28 -14 0 7 114 86 124 86 5 0 -9 -12 -30 -26z
m166 22 c0 -3 -4 -8 -10 -11 -5 -3 -10 -1 -10 4 0 6 5 11 10 11 6 0 10 -2 10
-4z m2093 -27 c7 -1 1 -4 -12 -8 -24 -6 -26 -12 -35 -81 -3 -19 -14 -105 -26
-190 -12 -85 -20 -178 -18 -207 2 -28 0 -49 -4 -46 -5 2 -8 -10 -8 -26 0 -17
-4 -31 -10 -31 -12 0 -12 17 0 143 13 131 19 185 27 227 4 19 8 44 9 55 4 35
24 150 29 164 3 7 12 10 21 7 9 -3 21 -6 27 -7z m-2368 -69 c-3 -5 -16 -15
-28 -21 -19 -9 -19 -8 3 10 28 23 34 26 25 11z m3845 -34 c0 -2 -8 -10 -17
-17 -16 -13 -17 -12 -4 4 13 16 21 21 21 13z m-2940 -10 c0 -2 -11 -6 -25 -8
-13 -3 -22 -1 -19 3 5 9 44 13 44 5z m2815 -16 c-10 -11 -22 -20 -28 -20 -5 0
1 9 14 20 31 25 37 25 14 0z m-2100 -8 c-3 -3 -11 0 -18 7 -9 10 -8 11 6 5 10
-3 15 -9 12 -12z m-799 -14 c4 -7 4 -10 -1 -6 -4 4 -15 2 -24 -5 -14 -11 -14
-10 -2 6 16 20 18 21 27 5z m-76 -25 c0 -3 -6 -3 -12 0 -7 2 -22 0 -33 -5 -19
-9 -19 -8 -2 6 17 13 47 12 47 -1z m2940 14 c0 -2 -10 -12 -22 -23 l-23 -19
19 23 c18 21 26 27 26 19z m-3185 -67 c4 -6 12 -7 18 -4 9 5 9 3 0 -6 -10 -11
-17 -8 -40 15 -23 23 -24 26 -6 16 12 -6 25 -16 28 -21z m62 4 c-9 -9 -28 6
-21 18 4 6 10 6 17 -1 6 -6 8 -13 4 -17z m-143 -3 c-8 -8 -53 -7 -48 1 3 4 16
7 29 6 13 -1 22 -4 19 -7z m2373 -16 c0 -8 -4 -15 -9 -15 -4 0 -8 7 -8 15 0 8
4 15 8 15 5 0 9 -7 9 -15z m-2187 -5 c0 -5 -10 -10 -22 -9 -22 0 -22 1 -3 9
11 5 21 9 23 9 1 1 2 -3 2 -9z m-270 -14 c0 -2 -7 -7 -16 -10 -8 -3 -12 -2 -9
4 6 10 25 14 25 6z m1886 -58 c-3 -24 -8 -88 -12 -143 -3 -55 -11 -104 -16
-110 -6 -7 -8 21 -3 80 3 50 8 108 9 130 3 43 14 85 23 85 3 0 3 -19 -1 -42z
m1291 36 c-3 -3 -12 -4 -19 -1 -8 3 -5 6 6 6 11 1 17 -2 13 -5z m-1707 -18 c0
-23 -16 -27 -17 -5 -1 10 2 19 8 19 5 0 9 -6 9 -14z m281 -121 c-2 -102 -5
-124 -15 -114 -5 5 -8 80 -7 167 1 43 5 62 12 60 8 -3 11 -39 10 -113z m-77
89 c3 -8 2 -13 -3 -10 -12 8 -28 -42 -25 -79 6 -86 6 -196 -1 -203 -5 -4 -5
-2 -2 5 4 6 3 13 -2 15 -15 5 -20 223 -5 257 14 34 29 40 38 15z m-1264 -19
c11 -13 10 -14 -4 -9 -9 3 -16 10 -16 15 0 13 6 11 20 -6z m1675 -5 c3 -6 -1
-7 -9 -4 -18 7 -21 14 -7 14 6 0 13 -4 16 -10z m321 -38 c-9 -17 -20 -33 -25
-36 -5 -4 0 12 12 33 25 46 36 48 13 3z m-852 -3 c-10 -11 -19 -26 -19 -32 0
-7 -3 -13 -7 -14 -5 -2 -8 -1 -8 2 0 53 1 59 9 47 7 -11 9 -11 14 2 4 9 12 16
18 16 7 0 4 -9 -7 -21z m583 4 c-14 -14 -19 -15 -29 -4 -11 10 -10 11 5 6 10
-4 17 -2 17 4 0 6 5 11 12 11 8 0 6 -6 -5 -17z m-312 -53 c-3 -5 -8 -33 -11
-62 -3 -29 -9 -57 -15 -62 -5 -6 -9 -19 -10 -30 0 -12 -3 -15 -6 -9 -5 13 14
150 23 164 3 5 10 9 15 9 6 0 7 -4 4 -10z m693 -15 c-3 -3 -9 2 -12 12 -6 14
-5 15 5 6 7 -7 10 -15 7 -18z m-958 12 c0 -2 -10 -12 -22 -23 l-23 -19 19 23
c18 21 26 27 26 19z m810 -6 c0 -5 -7 -12 -16 -15 -14 -5 -15 -4 -4 9 14 17
20 19 20 6z m-190 -15 c0 -2 -7 -6 -15 -10 -8 -3 -15 -1 -15 4 0 6 7 10 15 10
8 0 15 -2 15 -4z m-623 -21 c0 -8 -4 -12 -9 -9 -5 3 -6 10 -3 15 9 13 12 11
12 -6z m648 -55 c-3 -5 -16 -10 -28 -9 -20 1 -20 2 3 9 14 4 26 8 28 9 2 1 0
-3 -3 -9z m-638 -15 c0 -8 -4 -12 -9 -9 -5 3 -6 10 -3 15 9 13 12 11 12 -6z
m183 11 c0 -3 -4 -8 -10 -11 -5 -3 -10 -1 -10 4 0 6 5 11 10 11 6 0 10 -2 10
-4z m580 -35 c0 -5 -25 -11 -55 -13 -52 -3 -63 0 -48 15 10 10 103 8 103 -2z
m-683 -73 c-3 -8 -6 -5 -6 6 -1 11 2 17 5 13 3 -3 4 -12 1 -19z m-182 3 c3 -5
2 -12 -3 -15 -5 -3 -9 1 -9 9 0 17 3 19 12 6z m-1200 -241 c3 -5 1 -10 -4 -10
-6 0 -11 5 -11 10 0 6 2 10 4 10 3 0 8 -4 11 -10z m1712 -212 c-3 -7 -5 -2 -5
12 0 14 2 19 5 13 2 -7 2 -19 0 -25z m-550 -153 c0 -8 -4 -12 -9 -9 -5 3 -6
10 -3 15 9 13 12 11 12 -6z m1779 -32 c-10 -10 -106 -11 -106 -1 0 4 26 8 57
8 31 0 53 -3 49 -7z m244 0 c0 -10 -206 -11 -215 -1 -4 3 43 7 104 7 61 1 111
-2 111 -6z m25 -3 c3 -5 1 -10 -4 -10 -6 0 -11 5 -11 10 0 6 2 10 4 10 3 0 8
-4 11 -10z m125 -9 c0 -3 -25 -6 -55 -6 -30 0 -55 3 -55 7 0 4 25 7 55 7 30
-1 55 -4 55 -8z m94 -1 c-8 -7 -84 -7 -84 0 0 4 20 7 45 6 24 0 42 -3 39 -6z
m-466 -51 c89 0 162 -4 162 -7 0 -4 -83 -7 -185 -7 -102 0 -185 3 -185 7 0 4
-15 9 -32 11 -18 2 -8 3 22 1 30 -2 128 -4 218 -5z m267 -18 c-2 -4 -14 -7
-27 -5 -13 1 -33 3 -45 3 -13 1 -23 4 -23 9 0 4 22 5 50 4 27 -2 48 -7 45 -11z
m-1201 -47 c3 -8 2 -12 -4 -9 -6 3 -10 10 -10 16 0 14 7 11 14 -7z m26 -56 c0
-6 -7 -5 -15 2 -8 7 -15 17 -15 22 0 6 7 5 15 -2 8 -7 15 -17 15 -22z m15 -28
c3 -5 2 -10 -4 -10 -5 0 -13 5 -16 10 -3 6 -2 10 4 10 5 0 13 -4 16 -10z
m1129 -7 c8 3 18 2 21 -3 4 -6 -11 -9 -33 -8 -37 1 -93 -26 -114 -57 -5 -6 -8
-6 -8 2 0 13 71 63 90 63 5 0 10 6 10 13 0 8 3 8 9 -2 5 -8 16 -11 25 -8z
m166 1 c0 -2 -7 -4 -15 -4 -8 0 -15 4 -15 10 0 5 7 7 15 4 8 -4 15 -8 15 -10z
m-60 -14 c-14 -4 -36 -8 -50 -8 -22 0 -22 1 5 8 17 4 39 8 50 8 16 0 15 -2 -5
-8z m-2144 -37 c-8 -15 -15 -25 -16 -21 0 12 23 58 27 54 3 -2 -2 -17 -11 -33z
m948 21 c9 -25 2 -26 -17 -4 -13 16 -14 20 -3 20 8 0 17 -7 20 -16z m-1043
-31 c-4 -28 -6 -32 -9 -15 -3 22 3 52 11 52 1 0 1 -17 -2 -37z m1989 -13 c0
-5 -13 -16 -29 -25 -16 -8 -36 -22 -45 -30 -9 -9 -16 -12 -16 -7 0 6 17 21 38
33 20 13 39 27 40 31 5 11 12 10 12 -2z m-1090 -49 c0 -4 -11 -6 -25 -3 -14 2
-25 6 -25 8 0 2 11 4 25 4 14 0 25 -4 25 -9z m-903 -23 c-3 -8 -6 -5 -6 6 -1
11 2 17 5 13 3 -3 4 -12 1 -19z m673 4 c0 -5 -7 -9 -15 -9 -8 0 -12 4 -9 9 3
4 9 8 15 8 5 0 9 -4 9 -8z m79 -8 c-9 -11 -69 -7 -69 5 0 3 18 6 39 6 28 0 37
-3 30 -11z m1135 1 c-4 -8 -10 -15 -14 -15 -5 0 -21 -11 -37 -24 -26 -22 -94
-38 -107 -25 -3 3 13 6 36 8 23 1 49 9 58 17 16 15 63 53 67 54 1 0 0 -7 -3
-15z m236 -30 c31 -18 16 -18 -30 0 -23 9 -28 14 -15 14 11 0 31 -6 45 -14z
m-2440 1 c0 -2 -7 -7 -16 -10 -8 -3 -12 -2 -9 4 6 10 25 14 25 6z m677 -10 c3
-3 -14 -6 -38 -6 -29 0 -39 3 -30 9 15 10 58 8 68 -3z m929 -52 c13 -12 21
-24 17 -27 -9 -10 -73 65 -66 76 3 5 10 1 16 -9 5 -11 20 -28 33 -40z m-1256
32 c0 -2 -8 -10 -17 -17 -16 -13 -17 -12 -4 4 13 16 21 21 21 13z m-50 -20 c0
-2 -9 -6 -20 -9 -11 -3 -18 -1 -14 4 5 9 34 13 34 5z m2453 -11 c-3 -9 -8 -14
-10 -11 -3 3 -2 9 2 15 9 16 15 13 8 -4z m-170 -22 c3 -5 -6 -9 -20 -10 -19
-1 -22 1 -12 8 17 11 26 11 32 2z m-817 -44 c3 -6 -5 -3 -20 6 -14 10 -26 19
-26 22 0 7 39 -17 46 -28z m733 15 c3 -3 -19 -4 -47 -3 -29 1 -55 5 -57 9 -4
7 97 1 104 -6z m171 12 c0 -2 -7 -7 -16 -10 -8 -3 -12 -2 -9 4 6 10 25 14 25
6z m-2655 -24 c-3 -3 -11 0 -18 7 -9 10 -8 11 6 5 10 -3 15 -9 12 -12z m2612
12 c-3 -3 -12 -4 -19 -1 -8 3 -5 6 6 6 11 1 17 -2 13 -5z m-1580 -46 c-3 -7
-5 -2 -5 12 0 14 2 19 5 13 2 -7 2 -19 0 -25z m-937 12 c0 -5 -2 -10 -4 -10
-3 0 -8 5 -11 10 -3 6 -1 10 4 10 6 0 11 -4 11 -10z m1110 -91 c0 -6 -9 -8
-20 -4 -14 5 -20 2 -20 -10 0 -11 -8 -16 -22 -15 -41 4 -56 0 -72 -16 -9 -8
-20 -13 -25 -9 -6 3 -14 -3 -20 -12 -8 -15 -12 -16 -23 -4 -10 10 -10 12 0 7
7 -5 15 1 20 15 6 15 11 18 16 11 5 -8 15 -6 36 9 17 13 35 19 45 15 13 -4 16
-2 11 9 -4 12 3 15 34 15 22 0 40 -5 40 -11z m-164 -10 c4 -7 1 -10 -7 -7 -8
3 -36 -4 -64 -14 -77 -31 -82 -32 -55 -12 14 10 30 19 36 20 7 1 20 7 31 13
24 14 50 14 59 0z m294 0 c0 -5 -12 -9 -27 -10 -16 0 -37 -2 -48 -5 -11 -2
-27 -1 -35 2 -13 5 -12 7 2 13 27 10 108 10 108 0z m54 2 c3 -5 -6 -8 -19 -8
-14 0 -25 3 -25 8 0 5 9 9 19 9 11 0 22 -4 25 -9z m46 -14 c0 6 7 10 15 9 27
-4 26 -14 -1 -20 -18 -5 -30 -3 -35 6 -7 10 -9 10 -9 1 0 -9 -13 -12 -37 -11
l-38 1 33 4 c18 3 36 11 39 20 5 14 8 14 20 -3 7 -10 13 -13 13 -7z m155 -24
c3 -13 10 -21 15 -18 5 3 17 1 27 -4 10 -5 31 -12 46 -16 16 -3 25 -10 21 -16
-4 -6 -9 -7 -13 -3 -3 5 -17 11 -31 13 -14 1 -28 8 -31 13 -4 6 -11 8 -17 4
-6 -3 -15 1 -20 11 -8 13 -23 16 -73 15 -43 0 -56 2 -39 7 14 4 40 6 58 5 34
-2 39 4 20 25 -11 11 -9 11 9 0 12 -7 24 -24 28 -36z m245 17 c-6 -11 -13 -20
-16 -20 -2 0 0 9 6 20 6 11 13 20 16 20 2 0 0 -9 -6 -20z m-636 -9 c-35 -31
-185 -141 -193 -141 -5 0 -11 -3 -13 -7 -4 -11 -178 -146 -214 -168 l-29 -17
30 27 c17 14 55 45 85 68 30 23 63 50 73 61 9 10 17 16 17 12 0 -4 6 -2 13 4
39 34 233 176 236 173 3 -2 0 -7 -5 -12z m-298 -43 c4 -7 4 -10 -1 -6 -4 4
-17 1 -29 -7 -11 -8 -29 -15 -39 -15 -9 0 -20 -6 -23 -14 -3 -8 -16 -17 -29
-20 -23 -6 -83 -41 -113 -67 -7 -5 -20 -9 -30 -6 -14 3 -12 6 8 14 14 6 41 22
61 36 21 14 48 28 60 32 13 4 32 16 42 26 10 11 26 19 37 19 10 0 22 5 25 10
8 14 22 13 31 -2z m1268 -3 c5 -15 31 -16 54 -1 16 9 42 1 42 -14 0 -7 -6 -8
-19 0 -13 7 -22 7 -26 0 -11 -17 -50 -11 -63 10 -7 11 -8 20 -3 20 5 0 11 -7
15 -15z m136 -3 c0 -5 -7 -9 -15 -9 -8 0 -15 4 -15 9 0 4 7 8 15 8 8 0 15 -4
15 -8z m40 -16 c0 -3 -4 -8 -10 -11 -5 -3 -10 -1 -10 4 0 6 5 11 10 11 6 0 10
-2 10 -4z m-1719 -16 c5 0 9 -3 9 -7 0 -5 -19 -9 -43 -9 -24 -1 -54 -7 -68
-15 -13 -7 -30 -12 -36 -11 -7 2 -26 -4 -41 -12 -16 -8 -32 -12 -36 -9 -3 4
-6 2 -6 -4 0 -5 -18 -18 -39 -28 -22 -10 -42 -24 -45 -32 -3 -8 -11 -13 -18
-11 -14 2 -74 -27 -80 -39 -1 -5 -19 -16 -38 -27 -37 -20 -101 -60 -212 -134
-36 -24 -72 -42 -80 -39 -8 3 -4 9 12 16 31 14 58 31 84 54 11 9 26 17 33 17
7 0 13 5 13 12 0 6 3 8 7 5 3 -4 16 2 28 13 20 19 89 60 133 80 12 5 22 14 22
19 0 8 50 33 67 33 4 0 23 13 41 29 18 16 37 27 43 24 5 -4 9 -2 9 3 0 11 77
42 105 42 11 0 28 7 38 15 11 7 25 11 32 9 7 -3 16 0 20 6 4 6 14 9 22 6 8 -3
19 -6 24 -6z m1684 0 c3 -5 2 -10 -4 -10 -5 0 -13 5 -16 10 -3 6 -2 10 4 10 5
0 13 -4 16 -10z m93 -15 c3 -3 -9 -5 -26 -5 -18 0 -32 5 -32 10 0 10 47 6 58
-5z m-732 -20 c-4 -11 3 -19 19 -25 14 -5 25 -11 25 -13 0 -8 -41 0 -50 9 -10
10 -4 44 7 44 3 0 2 -7 -1 -15z m98 -40 c15 -8 32 -13 36 -10 5 3 11 1 15 -5
4 -6 10 -8 14 -6 4 3 13 0 21 -5 17 -12 -57 -2 -75 9 -11 7 -17 9 -40 11 -8 0
-15 6 -15 11 0 14 10 12 44 -5z m-1154 -15 c0 -5 -5 -10 -11 -10 -5 0 -7 5 -4
10 3 6 8 10 11 10 2 0 4 -4 4 -10z m1239 -94 c11 -11 21 -24 21 -30 0 -6 -15
5 -34 24 -18 19 -31 41 -28 49 4 11 7 10 13 -5 3 -10 16 -28 28 -38z m38 -82
c-7 -7 -37 7 -37 17 0 6 9 5 21 -1 11 -7 19 -14 16 -16z m-2107 -16 c0 -4 -5
-8 -12 -8 -6 0 -25 -10 -42 -23 -37 -28 -66 -40 -66 -27 0 5 16 16 35 25 19 9
39 22 44 29 12 14 41 17 41 4z m2620 -2 c0 -3 -4 -8 -10 -11 -5 -3 -10 -1 -10
4 0 6 5 11 10 11 6 0 10 -2 10 -4z m-1630 -30 c0 -2 -7 -7 -16 -10 -8 -3 -12
-2 -9 4 6 10 25 14 25 6z m1115 -6 c3 -5 1 -10 -4 -10 -6 0 -11 5 -11 10 0 6
2 10 4 10 3 0 8 -4 11 -10z m555 4 c0 -3 -9 -17 -20 -31 -14 -17 -20 -21 -20
-10 0 8 7 18 16 21 8 3 12 10 9 16 -3 5 -1 10 4 10 6 0 11 -3 11 -6z m-1410
-16 c0 -6 -3 -8 -7 -5 -3 4 -13 1 -22 -6 -14 -11 -14 -10 -2 6 15 20 31 22 31
5z m-50 -27 c0 -5 -10 -11 -22 -14 -22 -6 -22 -6 -4 8 23 17 26 18 26 6z m965
-21 c-10 -11 -22 -20 -27 -20 -10 0 24 38 36 39 5 1 1 -8 -9 -19z m469 -15
c-4 -8 -8 -15 -10 -15 -2 0 -4 7 -4 15 0 8 4 15 10 15 5 0 7 -7 4 -15z m-2534
-3 c0 -11 -49 -34 -59 -27 -5 2 -16 -4 -26 -15 -20 -22 -35 -26 -35 -8 0 6 3
8 7 5 3 -4 13 2 21 14 8 11 19 18 26 16 7 -3 23 1 37 9 29 16 29 16 29 6z
m2019 -4 c-2 -2 -15 -13 -29 -25 -19 -17 -29 -19 -40 -12 -12 9 -12 10 3 5 11
-3 22 2 29 14 7 11 19 20 27 20 8 0 12 -1 10 -2z m-999 -12 c0 -2 -7 -7 -16
-10 -8 -3 -12 -2 -9 4 6 10 25 14 25 6z m-261 -9 c-2 -1 -15 -11 -29 -22 l-25
-20 19 23 c11 12 24 22 29 22 6 0 8 -1 6 -3z m141 -1 c0 -2 -12 -11 -27 -20
l-28 -17 24 20 c23 21 31 25 31 17z m74 -20 c-5 -13 -104 -72 -104 -62 0 3 14
13 32 22 17 9 40 25 51 35 25 23 28 23 21 5z m916 -9 c0 -2 -11 -14 -25 -27
-14 -13 -25 -21 -25 -17 0 3 10 15 22 27 21 19 28 24 28 17z m-2000 -23 c0 -2
-9 -4 -21 -4 -11 0 -18 4 -14 10 5 8 35 3 35 -6z m805 -3 c-3 -6 -16 -16 -28
-22 -20 -11 -20 -9 3 13 25 24 38 29 25 9z m130 9 c-3 -5 -12 -10 -18 -10 -7
0 -6 4 3 10 19 12 23 12 15 0z m-202 -64 c-10 -13 -20 -22 -22 -20 -4 4 29 44
36 44 2 0 -4 -11 -14 -24z m230 9 c-3 -9 -8 -14 -10 -11 -3 3 -2 9 2 15 9 16
15 13 8 -4z m-23 -15 c0 -5 -5 -10 -11 -10 -5 0 -7 5 -4 10 3 6 8 10 11 10 2
0 4 -4 4 -10z"/>
</g>
</svg>
